<svg width="53" height="40" viewBox="0 0 53 40" fill="none" xmlns="http://www.w3.org/2000/svg">
<path opacity="0.9" d="M0 40V28.1155C0 24.7409 0.668067 21.293 2.0042 17.7717C3.34034 14.2503 5.10329 10.9308 7.29307 7.81293C9.48284 4.69509 11.8582 2.09078 14.4191 0L24.8855 6.10729C22.8071 9.33517 21.0998 12.7098 19.7637 16.2311C18.4646 19.7524 17.8151 23.6772 17.8151 28.0055V40H0ZM28.1145 40V28.1155C28.1145 24.7409 28.7826 21.293 30.1187 17.7717C31.4548 14.2503 33.2178 10.9308 35.4076 7.81293C37.5973 4.69509 39.9727 2.09078 42.5336 0L53 6.10729C50.9216 9.33517 49.2143 12.7098 47.8782 16.2311C46.5791 19.7524 45.9296 23.6772 45.9296 28.0055V40H28.1145Z" fill="#F3D832"/>
</svg>
